<svg width="197" height="197" viewBox="0 0 197 197" fill="none" xmlns="http://www.w3.org/2000/svg">
<g clip-path="url(#clip0_3_3)">
<path d="M128.212 40.5987C120.188 32.5747 109.523 28.1547 98.1733 28.1547C86.8264 28.1547 76.1577 32.5747 68.1342 40.5987C64.1753 44.5574 61.0946 49.16 58.9905 54.1707C58.5025 55.328 58.067 56.5094 57.6848 57.7134C56.5644 61.232 55.9061 64.9191 55.7394 68.6962C55.7092 69.3394 55.6941 69.9868 55.6941 70.6379C55.6941 71.141 55.7014 71.6404 55.7244 72.1399C56.0154 80.7123 58.8389 88.842 63.8389 95.6655C63.8577 95.6956 63.8764 95.7222 63.8993 95.7488C64.4785 96.5363 65.0873 97.3082 65.7269 98.0576C65.7534 98.0951 65.7837 98.1295 65.8144 98.1634C66.5482 99.0264 67.3244 99.8664 68.1342 100.676L72.4452 104.987L89.192 121.734C90.1192 121.008 91.0086 120.216 91.8566 119.369L96.0348 115.195L74.8253 93.9852C73.978 93.1374 73.1826 92.2555 72.4452 91.3358C71.7977 90.5374 71.1962 89.716 70.6321 88.868C67.067 83.5092 65.1556 77.2191 65.1556 70.6379C65.1556 69.979 65.1749 69.3243 65.216 68.6732C65.2733 67.6212 65.3826 66.5842 65.5457 65.555C66.0676 62.1187 67.131 58.8187 68.6868 55.7454C69.2165 54.692 69.8072 53.6707 70.4582 52.676C71.7029 50.7534 73.1638 48.948 74.8253 47.2867C81.0629 41.0534 89.3545 37.616 98.1733 37.616C106.995 37.616 115.287 41.0534 121.524 47.2867C123.186 48.948 124.647 50.7534 125.892 52.676C129.816 52.6867 133.661 53.1947 137.356 54.1707C135.256 49.16 132.174 44.5574 128.212 40.5987Z" fill="white"/>
<path d="M98.2801 65.7139C98.2425 65.7404 98.2082 65.7707 98.1744 65.8008C98.14 65.7664 98.1061 65.7404 98.0681 65.7139L98.1744 65.6076L98.2801 65.7139Z" fill="#5FC232"/>
<path d="M140.625 124.187C140.335 115.614 137.511 107.485 132.511 100.661C132.493 100.631 132.473 100.601 132.447 100.574C131.872 99.7873 131.266 99.0185 130.623 98.2696C130.6 98.2316 130.57 98.1977 130.536 98.1633C129.802 97.2967 129.025 96.4603 128.212 95.6467L107.154 74.5888C106.227 75.3191 105.341 76.1065 104.494 76.954L100.315 81.1327L117.346 98.1633L121.524 102.338C122.372 103.186 123.167 104.067 123.902 104.987H123.905C124.553 105.786 125.154 106.607 125.718 107.455C129.283 112.814 131.194 119.104 131.194 125.685C131.194 126.348 131.175 127.006 131.134 127.661C131.073 128.713 130.964 129.758 130.801 130.787C130.275 134.224 129.211 137.528 127.659 140.597C127.126 141.649 126.532 142.671 125.881 143.666C124.635 145.582 123.179 147.383 121.524 149.037C108.649 161.908 87.701 161.908 74.8254 149.037C73.1718 147.383 71.7145 145.582 70.4693 143.666C66.5447 143.655 62.6958 143.144 58.9978 142.172C61.1026 147.178 64.1791 151.77 68.1343 155.724C76.4187 164.009 87.2963 168.149 98.1734 168.149C109.054 168.149 119.931 164.009 128.212 155.724C132.171 151.77 135.248 147.178 137.348 142.172C137.84 141.013 138.276 139.836 138.653 138.636C139.779 135.113 140.44 131.423 140.611 127.646C140.641 126.995 140.656 126.34 140.656 125.685C140.656 125.186 140.648 124.686 140.625 124.187Z" fill="white"/>
<path d="M168.183 98.1634C168.183 109.51 163.763 120.179 155.739 128.202C151.784 132.157 147.189 135.235 142.187 137.335C143.159 133.637 143.669 129.792 143.681 125.867C145.596 124.622 147.397 123.165 149.052 121.511C155.285 115.274 158.721 106.982 158.721 98.1634C158.721 89.3415 155.285 81.0493 149.052 74.8117C147.387 73.1467 145.585 71.6936 143.681 70.4633C142.683 69.8123 141.66 69.2221 140.612 68.6961C137.497 67.1216 134.185 66.0732 130.806 65.5549C129.769 65.3883 128.724 65.2784 127.68 65.218C120.667 64.8013 113.548 66.603 107.473 70.6264C106.629 71.1827 105.804 71.7883 105.002 72.4316V72.4352C104.086 73.1696 103.2 73.9644 102.353 74.8117L98.178 78.9904H98.1744L96.0359 81.1327L81.1468 96.0212H81.1431L76.9687 91.8431C76.1207 90.9951 75.3302 90.1098 74.5994 89.1827L89.1968 74.5888V74.5847L91.3468 72.4352C91.3504 72.4352 91.3504 72.4352 91.3504 72.4352V72.4316L95.6614 68.1207C96.475 67.3071 97.3114 66.5347 98.1744 65.8008C98.2083 65.7707 98.2426 65.7404 98.2802 65.7139C99.0332 65.0743 99.8056 64.465 100.593 63.8894C100.619 63.867 100.646 63.8478 100.676 63.829C107.681 58.716 115.913 56.0133 124.213 55.7293C125.364 55.684 126.518 55.692 127.668 55.7453C131.385 55.916 135.087 56.5707 138.663 57.7133C139.855 58.092 141.032 58.5227 142.193 59.0147C147.121 61.0773 151.735 64.1164 155.739 68.1207C163.763 76.1483 168.183 86.8133 168.183 98.1634Z" fill="#90B9E6"/>
<path d="M121.748 107.14C121.018 106.213 120.23 105.328 119.382 104.48L115.208 100.305L100.315 115.195L98.177 117.336L93.9983 121.511C93.151 122.359 92.2693 123.153 91.3494 123.891C90.551 124.539 89.7297 125.14 88.8817 125.705C83.5229 129.27 77.2327 131.181 70.651 131.181C69.989 131.181 69.3302 131.162 68.6754 131.12C67.6234 131.06 66.5786 130.95 65.5494 130.787C62.113 130.261 58.8087 129.201 55.7395 127.646C54.6874 127.112 53.6655 126.518 52.6702 125.867C50.7551 124.622 48.9535 123.165 47.2994 121.511C41.0625 115.274 37.6302 106.982 37.6302 98.1634C37.6302 89.3415 41.0625 81.0493 47.2994 74.8117C48.965 73.1431 50.7666 71.6936 52.6702 70.4634C52.6817 66.5462 53.1849 62.708 54.1578 59.0147C49.2302 61.0774 44.6161 64.1164 40.6125 68.1207C32.5849 76.1483 28.1682 86.8134 28.1682 98.1634C28.1682 109.51 32.589 120.179 40.6125 128.202C44.5671 132.157 49.1619 135.235 54.165 137.335C55.3193 137.827 56.5005 138.261 57.6963 138.636C61.2197 139.764 64.9135 140.427 68.6947 140.597C69.3453 140.627 69.9963 140.643 70.651 140.643C71.1505 140.643 71.6505 140.635 72.1499 140.612C80.7223 140.321 88.8515 137.497 95.6754 132.498C95.7057 132.483 95.7359 132.46 95.7625 132.437C96.5494 131.858 97.3218 131.249 98.0707 130.613C98.1087 130.583 98.1426 130.552 98.177 130.522C98.9869 129.834 99.7739 129.107 100.538 128.35C100.592 128.301 100.641 128.251 100.69 128.202L105.001 123.891L121.752 107.14H121.748Z" fill="#90B9E6"/>
<path d="M64.9056 173.131C83.2504 191.475 113.099 191.475 131.444 173.131L173.135 131.44C191.48 113.096 191.48 83.2467 173.135 64.9019L131.444 23.212C113.099 4.868 83.2504 4.868 64.9056 23.212L23.2155 64.9019C4.87072 83.2467 4.87072 113.096 23.2155 131.44L64.9056 173.131ZM98.1749 196.347C83.7035 196.347 69.2321 190.839 58.2149 179.821L16.5253 138.131C-5.50845 116.097 -5.50845 80.2451 16.5253 58.2107L58.2149 16.5213C80.2488 -5.51332 116.101 -5.51332 138.135 16.5213L179.825 58.2107C201.859 80.2451 201.859 116.097 179.825 138.131L138.135 179.821C127.118 190.839 112.646 196.347 98.1749 196.347Z" fill="white"/>
</g>
<defs>
<clipPath id="clip0_3_3">
<rect width="196.347" height="196.347" fill="white"/>
</clipPath>
</defs>
</svg>
