<?xml version="1.0" encoding="UTF-8" standalone="no"?>
<!-- Created with Inkscape (http://www.inkscape.org/) -->

<svg
   version="1.1"
   id="svg1"
   width="196.34666"
   height="196.34666"
   viewBox="0 0 196.34666 196.34666"
   sodipodi:docname="fav_icon .eps"
   xmlns:inkscape="http://www.inkscape.org/namespaces/inkscape"
   xmlns:sodipodi="http://sodipodi.sourceforge.net/DTD/sodipodi-0.dtd"
   xmlns="http://www.w3.org/2000/svg"
   xmlns:svg="http://www.w3.org/2000/svg">
  <defs
     id="defs1" />
  <sodipodi:namedview
     id="namedview1"
     pagecolor="#ffffff"
     bordercolor="#000000"
     borderopacity="0.25"
     inkscape:showpageshadow="2"
     inkscape:pageopacity="0.0"
     inkscape:pagecheckerboard="0"
     inkscape:deskcolor="#d1d1d1">
    <inkscape:page
       x="0"
       y="0"
       inkscape:label="1"
       id="page1"
       width="196.34666"
       height="196.34666"
       margin="0"
       bleed="0" />
  </sodipodi:namedview>
  <g
     id="g1"
     inkscape:groupmode="layer"
     inkscape:label="1">
    <g
       id="group-R5">
      <path
         id="path2"
         d="m 961.59,1168.11 c -60.176,60.18 -140.164,93.33 -225.289,93.33 -85.102,0 -165.117,-33.15 -225.293,-93.33 -29.692,-29.69 -52.797,-64.21 -68.578,-101.79 -3.66,-8.68 -6.926,-17.54 -9.793,-26.57 -8.403,-26.39 -13.34,-54.043 -14.59,-82.371 -0.227,-4.824 -0.34,-9.68 -0.34,-14.563 0,-3.773 0.055,-7.519 0.227,-11.265 2.183,-64.293 23.359,-125.266 60.859,-176.442 0.141,-0.226 0.281,-0.425 0.453,-0.625 4.344,-5.906 8.91,-11.695 13.707,-17.316 0.199,-0.281 0.426,-0.539 0.656,-0.793 5.504,-6.473 11.325,-12.773 17.399,-18.848 L 543.34,685.195 668.941,559.594 c 6.954,5.449 13.625,11.383 19.985,17.738 l 31.336,31.309 -159.071,159.07 c -6.355,6.359 -12.32,12.973 -17.851,19.871 -4.856,5.988 -9.367,12.148 -13.598,18.508 -26.738,40.191 -41.074,87.367 -41.074,136.726 0,4.942 0.145,9.852 0.453,14.735 0.43,7.89 1.25,15.668 2.473,23.387 3.914,25.772 11.89,50.522 23.558,73.572 3.973,7.9 8.403,15.56 13.286,23.02 9.335,14.42 20.292,27.96 32.753,40.42 46.782,46.75 108.969,72.53 175.11,72.53 66.164,0 128.355,-25.78 175.133,-72.53 12.461,-12.46 23.418,-26 32.757,-40.42 29.434,-0.08 58.269,-3.89 85.979,-11.21 -15.75,37.58 -38.861,72.1 -68.58,101.79"
         style="fill:#3243a1;fill-opacity:1;fill-rule:nonzero;stroke:none"
         transform="matrix(0.13333333,0,0,-0.13333333,0,196.34667)" />
      <path
         id="path3"
         d="m 737.102,979.746 c -0.282,-0.199 -0.539,-0.426 -0.793,-0.652 -0.258,0.258 -0.512,0.453 -0.797,0.652 l 0.797,0.797 0.793,-0.797"
         style="fill:#5fc232;fill-opacity:1;fill-rule:nonzero;stroke:none"
         transform="matrix(0.13333333,0,0,-0.13333333,0,196.34667)" />
      <path
         id="path4"
         d="m 1054.69,541.199 c -2.18,64.293 -23.36,125.262 -60.854,176.442 -0.141,0.226 -0.285,0.453 -0.481,0.652 -4.316,5.902 -8.859,11.668 -13.683,17.285 -0.168,0.285 -0.399,0.539 -0.652,0.797 -5.508,6.5 -11.329,12.773 -17.43,18.875 L 803.656,913.184 c -6.953,-5.477 -13.597,-11.383 -19.953,-17.739 l -31.34,-31.34 127.735,-127.73 31.336,-31.309 c 6.359,-6.359 12.32,-12.972 17.828,-19.871 h 0.027 c 4.856,-5.988 9.367,-12.148 13.598,-18.507 26.738,-40.192 41.07,-87.368 41.07,-136.727 0,-4.969 -0.141,-9.906 -0.453,-14.82 -0.453,-7.891 -1.277,-15.723 -2.496,-23.446 -3.945,-25.773 -11.922,-50.554 -23.563,-73.574 -4,-7.891 -8.457,-15.551 -13.34,-23.019 -9.339,-14.364 -20.265,-27.872 -32.671,-40.282 -96.567,-96.531 -253.676,-96.531 -350.243,0 -12.402,12.41 -23.332,25.918 -32.671,40.282 -29.434,0.089 -58.301,3.918 -86.036,11.207 15.786,-37.547 38.86,-71.981 68.524,-101.637 62.133,-62.141 143.715,-93.192 225.293,-93.192 81.605,0 163.183,31.051 225.289,93.192 29.691,29.656 52.77,64.09 68.52,101.637 3.69,8.691 6.96,17.523 9.79,26.519 8.44,26.422 13.4,54.098 14.68,82.426 0.23,4.883 0.34,9.797 0.34,14.707 0,3.742 -0.06,7.492 -0.23,11.238"
         style="fill:#3243a1;fill-opacity:1;fill-rule:nonzero;stroke:none"
         transform="matrix(0.13333333,0,0,-0.13333333,0,196.34667)" />
      <path
         id="path5"
         d="m 1261.37,736.375 c 0,-85.098 -33.15,-165.117 -93.33,-225.293 -29.66,-29.66 -64.12,-52.742 -101.64,-68.492 7.29,27.73 11.12,56.57 11.21,86.008 14.36,9.336 27.87,20.265 40.28,32.672 46.75,46.777 72.52,108.968 72.52,175.105 0,66.164 -25.77,128.355 -72.52,175.137 -12.49,12.488 -26,23.386 -40.28,32.613 -7.49,4.883 -15.16,9.309 -23.02,13.254 -23.36,11.809 -48.2,19.672 -73.547,23.559 -7.777,1.25 -15.613,2.074 -23.445,2.527 C 905,986.59 851.609,973.078 806.051,942.902 c -6.332,-4.172 -12.52,-8.714 -18.535,-13.539 v -0.027 c -6.871,-5.508 -13.512,-11.469 -19.871,-17.824 l -31.309,-31.34 h -0.027 L 720.27,864.105 608.602,752.441 h -0.028 l -31.308,31.336 c -6.36,6.36 -12.289,13 -17.77,19.953 l 109.481,109.454 v 0.031 l 16.125,16.121 c 0.027,0 0.027,0 0.027,0 v 0.027 l 32.332,32.332 c 6.102,6.102 12.375,11.895 18.848,17.399 0.254,0.226 0.511,0.453 0.793,0.652 5.648,4.797 11.441,9.367 17.343,13.684 0.2,0.168 0.399,0.312 0.625,0.453 52.539,38.347 114.278,58.617 176.528,60.747 8.629,0.34 17.285,0.28 25.914,-0.12 27.875,-1.28 55.638,-6.19 82.458,-14.76 8.94,-2.84 17.77,-6.07 26.48,-9.76 36.96,-15.47 71.56,-38.263 101.59,-68.295 60.18,-60.207 93.33,-140.195 93.33,-225.32"
         style="fill:#90b9e6;fill-opacity:1;fill-rule:nonzero;stroke:none"
         transform="matrix(0.13333333,0,0,-0.13333333,0,196.34667)" />
      <path
         id="path6"
         d="M 913.109,669.047 C 907.633,676 901.727,682.641 895.367,689 L 864.059,720.309 752.363,608.641 736.328,592.578 704.988,561.27 c -6.355,-6.36 -12.968,-12.321 -19.867,-17.856 -5.988,-4.855 -12.148,-9.367 -18.508,-13.598 -40.191,-26.738 -87.367,-41.074 -136.73,-41.074 -4.965,0 -9.906,0.145 -14.817,0.457 -7.89,0.453 -15.726,1.278 -23.445,2.496 -25.773,3.946 -50.555,11.895 -73.574,23.559 -7.891,4.004 -15.555,8.461 -23.02,13.344 -14.363,9.336 -27.875,20.265 -40.281,32.672 -46.777,46.777 -72.519,108.968 -72.519,175.105 0,66.164 25.742,128.355 72.519,175.137 12.492,12.515 26.004,23.386 40.281,32.613 0.086,29.379 3.86,58.165 11.157,85.865 -36.957,-15.47 -71.563,-38.263 -101.59,-68.295 -60.207,-60.207 -93.332,-140.195 -93.332,-225.32 0,-85.098 33.156,-165.117 93.332,-225.293 29.66,-29.66 64.121,-52.742 101.644,-68.492 8.657,-3.692 17.516,-6.949 26.485,-9.762 26.425,-8.457 54.129,-13.43 82.488,-14.707 4.879,-0.223 9.762,-0.34 14.672,-0.34 3.746,0 7.496,0.059 11.242,0.231 64.293,2.179 125.262,23.359 176.441,60.855 0.227,0.113 0.454,0.281 0.653,0.453 5.902,4.344 11.695,8.914 17.312,13.684 0.285,0.226 0.539,0.453 0.797,0.68 6.074,5.164 11.977,10.617 17.711,16.293 0.399,0.367 0.766,0.738 1.137,1.105 l 32.332,32.332 125.629,125.633 h -0.028"
         style="fill:#90b9e6;fill-opacity:1;fill-rule:nonzero;stroke:none"
         transform="matrix(0.13333333,0,0,-0.13333333,0,196.34667)" />
      <path
         id="path7"
         d="m 486.793,174.121 c 137.586,-137.5819 361.453,-137.5819 499.039,0 l 312.678,312.676 c 137.59,137.586 137.59,361.453 0,499.039 L 985.832,1298.51 c -137.586,137.58 -361.453,137.58 -499.039,0 L 174.117,985.836 C 36.5313,848.25 36.5313,624.383 174.117,486.797 Z M 736.313,0 C 627.777,0 519.242,41.3086 436.613,123.941 l -312.672,312.68 c -165.2535,165.25 -165.2535,434.141 0,599.399 l 312.672,312.67 c 165.254,165.26 434.145,165.26 599.397,0 l 312.68,-312.67 c 165.25,-165.258 165.25,-434.149 0,-599.399 L 1036.01,123.941 C 953.387,41.3086 844.848,0 736.313,0"
         style="fill:#3243a1;fill-opacity:1;fill-rule:nonzero;stroke:none"
         transform="matrix(0.13333333,0,0,-0.13333333,0,196.34667)" />
    </g>
  </g>
</svg>
